<?xml version="1.0" encoding="UTF-8"?>
<svg width="96" height="96" version="1.1" viewBox="0 0 96 96" xmlns="http://www.w3.org/2000/svg">
 <path d="m48.04 0c-26.565 0-48.04 22-48.04 49.217 0 21.756 13.76 40.172 32.848 46.69 2.3865 0.49 3.2607-1.059 3.2607-2.362 0-1.141-0.07867-5.052-0.07867-9.127-13.363 2.934-16.146-5.867-16.146-5.867-2.1476-5.704-5.3297-7.17-5.3297-7.17-4.3739-3.015 0.3186-3.015 0.3186-3.015 4.8518 0.326 7.3976 5.052 7.3976 5.052 4.2942 7.496 11.214 5.378 13.998 4.074 0.39727-3.178 1.6707-5.378 3.0228-6.6-10.658-1.141-21.872-5.378-21.872-24.283 0-5.378 1.9077-9.778 4.9304-13.2-0.47692-1.222-2.1476-6.275 0.4779-13.038 0 0 4.0562-1.304 13.202 5.052a46.187 46.97 0 0 1 12.01-1.63c4.0562 0 8.1912 0.571 12.009 1.63 9.147-6.356 13.203-5.052 13.203-5.052 2.6255 6.763 0.95383 11.816 0.47692 13.038 3.1024 3.422 4.9314 7.822 4.9314 13.2 0 18.905-11.214 23.06-21.952 24.283 1.7503 1.548 3.2607 4.481 3.2607 9.126 0 6.6-0.07867 11.897-0.07867 13.526 0 1.304 0.87517 2.853 3.2607 2.364 19.088-6.52 32.848-24.935 32.848-46.691 0.078667-27.217-21.475-49.217-47.96-49.217z" clip-rule="evenodd" fill="#fff" fill-rule="evenodd"/>
</svg>
